<svg id="Layer_1" data-name="Layer 1" xmlns="http://www.w3.org/2000/svg" xmlns:xlink="http://www.w3.org/1999/xlink" viewBox="0 0 832 754.03"><defs><style>.cls-1{fill:#395aff;}.cls-2{fill:url(#linear-gradient);}</style><linearGradient id="linear-gradient" x1="702.21" y1="289.22" x2="702.45" y2="289.48" gradientTransform="matrix(1, 0, 0, -1, 0, 754)" gradientUnits="userSpaceOnUse"><stop offset="0.15" stop-color="#00a551"/><stop offset="1" stop-color="#aed036"/></linearGradient></defs><title>logo</title><path class="cls-1" d="M585.91,5.37A239.65,239.65,0,0,0,416,75.68C322-18.12,169.75-18,76,76s-93.65,246.25.35,340.06q5.48,5.46,11.29,10.56c32.31,27.21,68.1,31.68,116.53,31.7a191.75,191.75,0,0,0,147.69-69.28L248,341.14a330.92,330.92,0,0,1,30.22-22.3c16.35-10.49,127.67,17.71,127.67,17.71l-1,1.4q4.45-4.59,9-9.2c53.6-53.6,107.53-86.57,120.42-73.64s-20,66.9-73.65,120.42c-3.13,3.14-6.3,6.21-9.44,9.2.79,3.17,28,111.5,17.68,127.58a331.34,331.34,0,0,1-22.3,30.25L399,436.55c-81.55,68.1-92.46,189.41-24.36,271q5.08,6.09,10.67,11.75a204.09,204.09,0,0,0,37.53,29.4L702,469.57c-1-1.63-.45-.88,0-.07,17.1-14.75,31.29-31.22,46.95-46.95l13.6-13.6c90.08-97.59,84-249.73-13.59-339.81A240.46,240.46,0,0,0,585.91,5.37Z"/><path class="cls-2" d="M702.05,464.13v.07C703.11,465.81,702.59,465,702.05,464.13Z"/></svg>